<svg width="41" height="40" viewBox="0 0 41 40" fill="none" xmlns="http://www.w3.org/2000/svg">
<path d="M29.12 40C28.678 39.9999 28.2541 39.8243 27.9417 39.5117L14.3217 25.8917C12.7594 24.329 11.8818 22.2097 11.8818 20C11.8818 17.7903 12.7594 15.6711 14.3217 14.1084L27.9417 0.488361C28.256 0.184764 28.677 0.0167735 29.114 0.0205708C29.551 0.0243682 29.969 0.19965 30.278 0.508663C30.587 0.817677 30.7623 1.2357 30.7661 1.67269C30.7699 2.10969 30.6019 2.53069 30.2983 2.84503L16.6783 16.465C15.741 17.4027 15.2144 18.6742 15.2144 20C15.2144 21.3258 15.741 22.5974 16.6783 23.535L30.2983 37.155C30.5313 37.3881 30.69 37.685 30.7543 38.0083C30.8186 38.3316 30.7856 38.6666 30.6595 38.9711C30.5333 39.2756 30.3198 39.5359 30.0458 39.719C29.7717 39.9022 29.4496 40 29.12 40Z" fill="#AF7C57"/>
</svg>
