<svg width="20" height="40" viewBox="0 0 20 40" fill="none" xmlns="http://www.w3.org/2000/svg">
<path d="M2.16668 -2.28882e-05C1.83709 4.95911e-05 1.51493 0.0978355 1.24091 0.280975C0.966897 0.464115 0.753332 0.724388 0.627215 1.02889C0.501098 1.33339 0.468093 1.66844 0.532372 1.9917C0.596651 2.31495 0.755329 2.61189 0.988345 2.84498L14.6083 16.465C15.5457 17.4026 16.0723 18.6742 16.0723 20C16.0723 21.3258 15.5457 22.5973 14.6083 23.535L0.988345 37.155C0.684748 37.4693 0.516757 37.8903 0.520554 38.3273C0.524352 38.7643 0.699634 39.1823 1.00865 39.4913C1.31766 39.8004 1.73568 39.9756 2.17268 39.9794C2.60967 39.9832 3.03067 39.8152 3.34501 39.5116L16.965 25.8916C18.5252 24.3278 19.4015 22.209 19.4015 20C19.4015 17.7909 18.5252 15.6721 16.965 14.1083L3.34501 0.488308C3.03252 0.175728 2.60867 7.24792e-05 2.16668 -2.28882e-05Z" fill="#AF7C57"/>
</svg>
