<svg width="30" height="27" viewBox="0 0 30 27" fill="none" xmlns="http://www.w3.org/2000/svg">
<path d="M21.875 0.345274C20.4674 0.366702 19.0906 0.751265 17.8835 1.46013C16.6763 2.16899 15.6817 3.17705 15 4.38251C14.3183 3.17705 13.3237 2.16899 12.1166 1.46013C10.9094 0.751265 9.53257 0.366702 8.12501 0.345274C5.88119 0.440688 3.76714 1.40138 2.24474 3.01747C0.722333 4.63356 -0.0846793 6.77368 8.89925e-06 8.97027C8.89925e-06 14.5331 5.98251 20.6085 11 24.7277C12.1203 25.6491 13.5367 26.1542 15 26.1542C16.4633 26.1542 17.8797 25.6491 19 24.7277C24.0175 20.6085 30 14.5331 30 8.97027C30.0847 6.77368 29.2777 4.63356 27.7553 3.01747C26.2329 1.40138 24.1188 0.440688 21.875 0.345274ZM17.3938 22.8559C16.7237 23.4081 15.876 23.711 15 23.711C14.1241 23.711 13.2763 23.4081 12.6063 22.8559C6.18376 17.5818 2.50001 12.5218 2.50001 8.97027C2.41456 7.42232 2.95797 5.90409 4.01171 4.74672C5.06546 3.58934 6.54405 2.88671 8.12501 2.79208C9.70597 2.88671 11.1846 3.58934 12.2383 4.74672C13.2921 5.90409 13.8355 7.42232 13.75 8.97027C13.75 9.29474 13.8817 9.60592 14.1161 9.83535C14.3505 10.0648 14.6685 10.1937 15 10.1937C15.3315 10.1937 15.6495 10.0648 15.8839 9.83535C16.1183 9.60592 16.25 9.29474 16.25 8.97027C16.1646 7.42232 16.708 5.90409 17.7617 4.74672C18.8155 3.58934 20.2941 2.88671 21.875 2.79208C23.456 2.88671 24.9346 3.58934 25.9883 4.74672C27.0421 5.90409 27.5855 7.42232 27.5 8.97027C27.5 12.5218 23.8163 17.5818 17.3938 22.851V22.8559Z" fill="#AF7C57"/>
</svg>
