<svg width="250" height="181" viewBox="0 0 250 181" fill="none" xmlns="http://www.w3.org/2000/svg">
<g clip-path="url(#clip0)">
<path d="M79.2217 119.769H76.6157V156.03H99.8958L100.417 153.938H79.2217V119.769ZM14.0723 119.769H1.04239V156.03H3.64837V142.955H14.0723C21.5427 142.955 27.1022 137.9 27.1022 131.449C27.1022 124.65 21.5427 119.769 14.0723 119.769ZM14.0723 140.689H3.64837V121.861H14.0723C19.9792 121.861 24.4962 125.87 24.4962 131.275C24.4962 136.679 19.9792 140.689 14.0723 140.689ZM49.3398 119.769L33.8777 156.03H36.4837L40.6532 145.919H59.4163L63.5858 156.03H66.5393L51.0771 119.769H49.3398ZM41.6956 143.827L50.0347 123.953L58.3739 143.827H41.6956ZM127.867 146.965L112.057 119.769H109.625V156.03H111.71V124.476L126.824 150.452H128.214L143.502 124.476V156.03H146.108V119.769H143.676L127.867 146.965ZM227.762 119.769H226.025L210.563 156.03H212.995L217.165 145.919H235.928L240.097 156.03H243.051L227.762 119.769ZM218.207 143.827L226.546 123.953L234.885 143.827H218.207ZM202.224 130.752C202.224 124.127 197.186 119.594 189.715 119.594H177.206V155.856H179.812V141.735H191.974L201.703 155.856H204.83L194.58 141.212C196.317 140.515 202.224 138.248 202.224 130.752ZM189.715 139.817H179.812V121.861H189.715C195.622 121.861 199.618 125.522 199.618 130.752C199.618 136.156 195.622 139.817 189.715 139.817ZM160.354 155.856H162.96V119.769H160.354V155.856Z" fill="#18373B"/>
<path d="M244.267 156.553H239.75L235.58 146.442H217.686L213.516 156.553H209.521L225.504 118.897H228.11L228.284 119.246L244.267 156.553ZM240.618 155.159H242.008L227.241 120.466H226.372L211.605 155.159H212.474L216.644 145.047H236.275L240.618 155.159ZM206.046 156.553H201.181L191.452 142.432H180.334V156.553H176.338V119.071H189.541C197.533 119.071 202.745 123.778 202.745 130.926C202.745 137.9 197.88 140.689 195.448 141.735L206.046 156.553ZM201.876 155.159H203.266L193.19 140.689L194.058 140.34C196.317 139.643 201.355 137.377 201.355 130.577C201.355 124.301 196.664 120.292 189.541 120.292H177.728V155.159H178.944V141.212H192.147L201.876 155.159ZM163.655 156.553H159.66V119.071H163.655V156.553ZM161.049 155.159H162.265V120.466H161.049V155.159ZM146.977 156.553H142.981V126.916L128.735 150.975H126.477L126.303 150.626L112.578 126.916V156.553H109.104V119.071H112.578L128.04 145.57L143.676 119.071H147.151V156.553H146.977ZM144.371 155.159H145.587V120.466H144.197L127.693 148.36L111.536 120.466H110.32V155.159H111.015V121.686L127.172 149.58H127.693L144.197 121.686V155.159H144.371ZM100.417 156.553H75.9208V119.071H79.9166V153.067H101.286L100.417 156.553ZM77.4844 155.159H99.3746L99.5483 154.461H78.5268V120.466H77.3106V155.159H77.4844ZM67.7554 156.553H63.2384L59.0688 146.442H41.1744L37.0049 156.553H33.009L48.9924 118.897H51.5983L51.7721 119.246L67.7554 156.553ZM64.107 155.159H65.4969L50.7297 120.466H49.861L35.0938 155.159H35.9625L40.132 145.047H59.7637L64.107 155.159ZM4.3433 156.553H0.347473V119.071H14.0723C21.8902 119.071 27.7971 124.301 27.7971 131.449C27.7971 138.423 21.8902 143.827 14.0723 143.827H4.3433V156.553ZM1.73733 155.159H2.95345V142.084H14.0723C21.0216 142.084 26.4072 137.377 26.4072 131.275C26.4072 124.999 21.0216 120.466 14.0723 120.466H1.73733V155.159ZM236.101 144.524H217.165L226.72 122.209L236.101 144.524ZM219.249 143.13H233.843L226.546 125.87L219.249 143.13ZM59.4163 144.524H40.4795L50.0348 122.209L59.4163 144.524ZM42.738 143.13H57.3315L50.0348 125.87L42.738 143.13ZM14.0723 141.561H2.95345V121.163H14.0723C20.5004 121.163 25.1911 125.522 25.1911 131.275C25.1911 137.028 20.3266 141.561 14.0723 141.561ZM4.3433 139.992H14.0723C19.6317 139.992 23.8013 136.156 23.8013 131.275C23.8013 126.219 19.6317 122.558 14.0723 122.558H4.3433V139.992ZM189.715 140.515H178.944V121.163H189.541C195.969 121.163 200.139 124.999 200.139 130.926C200.313 136.505 195.969 140.515 189.715 140.515ZM180.334 139.12H189.541C195.101 139.12 198.749 135.808 198.749 130.926C198.749 126.045 195.101 122.732 189.541 122.732H180.334V139.12Z" fill="#18373B"/>
<path d="M48.1237 173.813H52.9882L53.1619 172.767H47.95V168.06H54.7255L54.8992 167.014H46.9076V179.914H55.4204V178.868H48.1237V173.813ZM89.9931 166.665C86.5184 166.665 83.9124 169.454 83.9124 173.464C83.9124 177.474 86.5184 180.263 89.9931 180.263C93.4677 180.263 96.0737 177.474 96.0737 173.464C95.8999 169.629 93.4677 166.665 89.9931 166.665ZM89.9931 179.217C87.2133 179.217 85.1286 176.776 85.1286 173.464C85.1286 170.152 87.2133 167.711 89.9931 167.711C92.7728 167.711 94.8575 170.152 94.8575 173.464C94.6838 176.776 92.7728 179.217 89.9931 179.217ZM238.881 167.014H238.013L232.801 179.914H234.017L235.407 176.428H241.313L242.703 179.914H244.093L238.881 167.014ZM235.928 175.382L238.36 169.28L240.792 175.382H235.928ZM74.8784 167.014H70.3614V179.914H71.5775V175.382H74.8784C77.4844 175.382 79.3954 173.638 79.3954 171.198C79.3954 168.931 77.4844 167.014 74.8784 167.014ZM74.8784 174.336H71.5775V168.06H74.8784C76.7894 168.06 78.1793 169.454 78.1793 171.198C78.1793 172.941 76.7894 174.336 74.8784 174.336ZM32.3141 168.234H36.6574V180.089H37.8735V168.234H42.0431L42.3906 167.188H32.4878V168.234H32.3141ZM14.5935 167.014H13.3773V179.914H21.369L21.5427 178.868H14.5935V167.014ZM1.21612 173.813H6.08061L6.25434 172.767H1.04239V168.06H7.81793L7.99166 167.014H0V179.914H8.51286V178.868H1.21612V173.813ZM185.719 167.014H182.418V179.914H185.719C189.541 179.914 192.321 177.125 192.321 173.464C192.321 169.803 189.541 167.014 185.719 167.014ZM185.719 178.868H183.634V168.234H185.719C188.846 168.234 191.105 170.5 191.105 173.638C191.105 176.602 188.846 178.868 185.719 178.868ZM26.4072 179.914H27.6234V167.014H26.4072V179.914ZM141.765 166.665C138.29 166.665 135.685 169.454 135.685 173.464C135.685 177.474 138.29 180.263 141.765 180.263C145.24 180.263 147.846 177.474 147.846 173.464C147.672 169.629 145.24 166.665 141.765 166.665ZM141.765 179.217C138.985 179.217 136.901 176.776 136.901 173.464C136.901 170.152 138.985 167.711 141.765 167.711C144.545 167.711 146.63 170.152 146.63 173.464C146.456 176.776 144.545 179.217 141.765 179.217ZM206.393 168.234H210.737V180.089H211.953V168.234H216.122L216.296 167.188H206.393V168.234ZM161.571 177.822L154.274 167.014H153.231V179.914H154.274V169.106L161.571 179.914H162.613V167.014H161.571V177.822ZM170.257 173.813H175.122L175.295 172.767H170.083V168.06H176.859L177.033 167.014H168.867V179.914H177.38V178.868H170.257V173.813ZM114.316 168.234H118.659V180.089H119.875V168.234H124.044L124.218 167.188H114.316V168.234ZM110.146 171.023C110.146 168.583 108.409 167.014 105.803 167.014H101.459V179.914H102.675V175.033H106.324L109.451 179.914H110.841L107.366 174.684C108.409 174.51 110.146 173.464 110.146 171.023ZM105.803 173.987H102.675V168.06H105.803C107.714 168.06 108.93 169.28 108.93 171.023C108.93 172.941 107.714 173.987 105.803 173.987ZM222.203 173.813H227.067L227.241 172.767H222.029V168.06H228.805L228.978 167.014H220.813V179.914H229.326V178.868H222.029V173.813H222.203ZM128.909 179.914H130.125V167.014H128.909V179.914Z" fill="#18373B"/>
<path d="M245.83 119.769C245.83 118.548 244.788 117.677 243.398 117.677H240.966V124.65H241.661V122.035H243.919L245.83 124.65H246.525L244.614 121.861C244.788 121.686 245.83 121.163 245.83 119.769ZM243.398 121.512H241.487V118.2H243.398C244.441 118.2 245.309 118.897 245.309 119.769C245.136 120.815 244.441 121.512 243.398 121.512ZM243.224 114.539C239.402 114.539 236.449 117.677 236.449 121.338C236.449 125.173 239.576 128.137 243.224 128.137C247.047 128.137 250 124.999 250 121.338C250 117.677 247.047 114.539 243.224 114.539ZM243.224 127.265C239.924 127.265 237.318 124.65 237.318 121.338C237.318 118.025 239.924 115.41 243.224 115.41C246.525 115.41 249.131 118.025 249.131 121.338C249.131 124.65 246.525 127.265 243.224 127.265Z" fill="#18373B"/>
<path d="M150.452 2.96375C150.104 3.13808 149.931 3.13808 149.583 3.31242C149.236 3.48675 148.888 3.66109 148.541 3.83542L146.803 4.88144C145.587 5.57878 144.545 6.27612 143.502 7.1478C141.244 8.71682 139.159 10.2858 137.248 12.2035C133.252 15.8646 129.604 20.0486 126.65 24.5814C125.087 26.8477 123.871 29.2884 122.828 31.7291C121.786 34.1698 120.744 36.7849 120.049 39.3999C119.354 42.0149 118.659 44.63 118.138 47.4194C117.964 48.814 117.79 50.0344 117.616 51.4291L117.443 53.5211L117.269 55.6131L117.095 57.5308L118.659 57.1822C119.006 57.1822 119.354 57.0078 119.701 57.0078C119.875 57.0078 119.875 57.0078 120.049 57.0078H120.222H120.396L120.917 56.8335L122.828 56.1361C123.523 55.9618 124.218 55.6131 124.913 55.4388C125.608 55.0901 126.303 54.9158 126.824 54.5671C129.43 53.3468 131.862 51.9521 134.295 50.3831C134.816 50.0344 135.511 49.5114 136.032 49.1627C136.553 48.6397 137.074 48.291 137.596 47.768C138.117 47.245 138.638 46.8964 139.159 46.3733C139.333 46.199 139.68 45.8503 139.854 45.676L140.549 44.8043C142.46 42.7123 144.197 40.2716 145.413 37.4822C146.63 34.8672 147.498 32.0778 148.193 29.1141C148.714 26.3247 149.062 23.361 149.409 20.5717C149.583 17.7823 149.757 14.9929 149.931 12.2035C149.931 10.8089 150.104 9.41417 150.104 8.01948C150.104 7.32214 150.278 6.6248 150.278 5.92745C150.278 5.57878 150.452 5.23011 150.452 4.88144V4.35843V4.00976C150.625 3.13808 150.452 2.96375 150.452 2.96375ZM149.409 5.05577C149.236 5.75312 148.888 6.45046 148.714 7.1478C148.367 8.54249 148.019 9.93718 147.846 11.3319C147.325 14.1212 146.803 16.9106 146.282 19.7C145.761 22.4893 145.24 25.1044 144.719 27.7194C144.024 30.3345 143.329 32.9495 142.46 35.5645C142.286 35.9132 142.286 36.2619 142.113 36.4362L141.765 37.3079C141.591 38.0052 141.244 38.5282 141.07 39.2256C140.723 39.7486 140.549 40.4459 140.202 40.9689C139.854 41.4919 139.507 42.1893 139.159 42.7123C137.769 44.9787 135.858 47.0707 133.6 48.6397C131.341 50.2087 128.909 51.6034 126.303 52.4751C124.913 52.9981 123.697 53.3468 122.307 53.5211L120.222 54.0441H120.049V53.8698L120.396 51.9521L120.917 50.0344L121.439 48.1167C122.133 45.676 122.828 43.061 123.697 40.7946C124.566 38.3539 125.608 36.0875 126.65 33.6468C127.693 31.3805 128.909 29.1141 130.299 26.8477C132.905 22.4893 136.032 18.3053 139.333 14.4699C141.07 12.5522 142.808 10.6345 144.719 8.71682C145.761 7.84515 146.63 6.97347 147.672 6.10179L149.062 4.7071C149.236 4.53277 149.409 4.35843 149.583 4.00976C149.757 3.83542 149.757 3.83542 149.931 3.66109L149.757 4.00976C149.583 4.35843 149.409 4.7071 149.409 5.05577Z" fill="#AF7C57"/>
<path d="M110.146 53.1724C107.366 53.6954 104.934 53.6954 102.328 53.5211C95.0313 52.8238 89.4719 49.1627 85.476 43.2353C83.565 40.4459 82.0014 37.4822 80.4378 34.5185C78.8742 31.7291 77.4844 28.9398 75.9208 26.3247C75.9208 26.1504 75.747 25.9761 75.747 25.6274C82.5226 27.3707 88.6032 30.1601 94.1626 34.1698C100.938 38.8769 106.15 45.3273 110.146 53.1724Z" fill="#AF7C57"/>
<path d="M92.4253 19.7C92.4253 21.792 90.8617 23.361 88.7769 23.361C86.6922 23.361 85.1286 21.6177 85.1286 19.7C85.1286 17.7823 86.6922 16.2132 88.7769 16.2132C90.688 16.0389 92.4253 17.6079 92.4253 19.7Z" fill="#AF7C57"/>
<path d="M97.811 12.0291C96.7686 13.5982 94.8576 13.9468 93.294 12.9008C91.7304 11.8548 91.3829 9.76278 92.4253 8.36809C93.4677 6.9734 95.5525 6.62473 96.9423 7.49641C98.5059 8.54243 98.8534 10.4601 97.811 12.0291Z" fill="#AF7C57"/>
<path d="M105.629 1.22038C107.192 1.91773 107.887 3.66108 107.193 5.23011C106.498 6.79913 104.76 7.49647 103.197 6.79913C101.633 6.10179 100.938 4.35843 101.633 2.78941C102.502 1.22038 104.239 0.523041 105.629 1.22038Z" fill="#AF7C57"/>
<path d="M117.964 1.04596C118.833 2.09197 118.659 3.83533 117.616 4.70701C116.4 5.57869 114.663 5.40435 113.794 4.184C112.926 2.96365 113.099 1.39463 114.316 0.522949C115.532 -0.34873 116.921 -0.174394 117.964 1.04596Z" fill="#AF7C57"/>
<path d="M124.566 3.66104C125.087 2.61502 126.303 2.26635 127.345 2.78936C128.388 3.31237 128.735 4.53272 128.214 5.57873C127.693 6.62474 126.477 6.97342 125.434 6.45041C124.392 5.9274 123.871 4.70705 124.566 3.66104Z" fill="#AF7C57"/>
<path d="M181.897 60.6689C181.723 59.2742 181.202 57.8795 180.507 56.6591C180.16 55.9618 179.639 55.4388 179.117 54.9158C178.596 54.3928 178.075 53.8698 177.554 53.5211C175.295 51.7777 172.516 50.7317 169.91 50.0344C169.215 49.86 168.52 49.6857 167.825 49.5114L167.304 49.337H167.13C166.956 49.337 166.956 49.337 166.956 49.337C166.609 49.1627 166.435 48.9884 166.088 48.814C165.566 48.4654 165.045 47.9424 164.524 47.4193C164.003 47.0707 163.308 46.5477 162.787 46.3733C158.617 44.2813 155.316 43.061 150.452 42.7123C150.452 42.8866 157.748 44.9786 162.265 47.9424C164.177 49.1627 165.045 50.2087 165.393 50.7317C165.393 50.7317 165.393 51.2547 165.219 51.2547C165.045 51.6034 164.698 52.1264 164.524 52.4751C163.829 53.3468 162.96 54.2184 161.918 54.9158C160.007 56.3105 157.922 57.3565 155.837 58.4025C151.494 60.3202 146.977 61.5405 142.46 62.5866C133.252 64.5043 123.871 65.3759 114.489 65.3759C105.108 65.3759 95.7262 64.6786 86.5184 62.7609C82.0014 61.8892 77.3107 60.6689 72.9674 58.7512C70.8826 57.8795 68.6241 56.8335 66.8867 55.4388C66.0181 54.7414 64.9757 54.0441 64.2808 52.9981C63.7596 52.3007 63.2384 51.6034 63.0646 50.7317C63.0646 50.5574 62.8909 50.2087 62.8909 50.0344C62.8909 49.86 62.7172 49.6857 62.7172 49.6857C62.5434 49.6857 62.5435 49.6857 62.5435 49.86C62.196 56.8335 63.2384 63.9812 65.8444 70.606C68.2766 77.0564 72.2724 83.1582 76.9632 88.0396C81.8277 93.0953 87.7346 97.105 94.1626 99.7201C95.5525 100.243 96.9423 100.766 98.3322 101.289C82.3489 102.509 72.9674 105.473 72.9674 105.473C104.413 101.986 155.837 105.473 155.837 105.473C146.456 103.381 137.422 102.161 129.256 101.463C131.168 100.94 133.079 100.243 134.816 99.3714C141.244 96.582 146.977 92.398 151.842 87.3422C156.706 82.2865 160.528 76.3591 162.96 69.7343C164.177 66.4219 165.045 63.1096 165.74 59.6228C166.088 57.8795 166.261 56.1361 166.261 54.3928C166.261 53.5211 166.435 52.6494 166.435 51.7777V51.6034L167.651 51.9521C168.346 52.1264 168.867 52.3007 169.562 52.6494C170.778 53.1724 171.994 53.6954 173.037 54.2184C174.079 54.7414 175.122 55.4388 175.99 56.1361C176.859 56.8335 177.554 57.5308 178.075 58.4025C178.596 59.2742 178.77 60.1459 178.944 61.0175C178.944 61.1919 178.944 61.5405 178.944 61.7149C178.944 62.0636 178.944 62.2379 178.944 62.5866C178.944 63.1096 178.77 63.6326 178.77 64.1556C178.596 65.2016 178.075 65.8989 177.554 66.7706C177.033 67.6423 176.164 68.3396 175.122 68.8626C174.6 69.2113 174.079 69.56 173.558 69.7343C173.037 70.083 172.516 70.2573 171.821 70.606C170.605 71.129 169.388 71.652 167.999 72.175C167.304 72.5237 166.609 72.698 165.914 73.221C165.566 73.3954 165.219 73.5697 164.871 73.9184C164.524 74.2671 164.003 74.6157 163.655 75.1387C163.134 76.0104 162.787 76.8821 162.96 77.9281C162.96 78.9741 163.308 79.8458 163.829 80.5431C164.35 81.2405 165.219 81.7635 165.914 81.9378C166.783 82.1122 167.477 82.1122 168.172 81.9378V81.5891C167.477 81.5891 166.783 81.4148 166.261 81.0661C165.74 80.7175 165.219 80.3688 164.871 79.8458C164.524 79.3228 164.35 78.6254 164.524 77.9281C164.524 77.2308 164.871 76.7078 165.219 76.1847C165.566 75.6617 166.261 75.4874 166.783 75.1387C167.477 74.9644 167.999 74.6157 168.694 74.4414C170.083 74.0927 171.3 73.744 172.689 73.221C174.079 72.698 175.295 72.175 176.511 71.4777C177.728 70.7803 178.944 69.9087 179.812 68.8626C180.681 67.8166 181.376 66.4219 181.723 65.0273C181.897 64.3299 182.071 63.6326 182.071 62.9352C182.071 62.0635 182.071 61.3662 181.897 60.6689ZM75.7471 82.1122C74.7047 80.8918 73.6623 79.4971 72.6199 78.2768C70.7088 75.6617 68.9715 72.698 67.5817 69.7343C65.1494 64.5042 63.5858 58.7512 62.7172 52.8238C62.8909 53.1724 63.0646 53.3468 63.2384 53.6954C63.9333 54.7414 64.802 55.6131 65.6706 56.4848C66.5393 57.3565 67.5817 58.0538 68.6241 58.7512C69.1453 59.0998 69.6665 59.4485 70.1877 59.6228C70.7088 59.9715 71.23 60.1459 71.7512 60.4945C74.0097 61.5405 76.2683 62.5866 78.5268 63.2839C80.7853 64.1556 83.2175 64.6786 85.476 65.3759C85.9972 65.5503 86.6922 65.7246 87.3871 65.8989C87.7346 69.3856 88.2558 72.698 89.1244 76.1847C89.2981 77.0564 89.6456 77.9281 89.9931 78.9741C88.6032 79.4971 87.2134 80.1945 85.8235 80.8918C83.3913 82.2865 80.959 83.6812 78.8742 85.5989C77.8319 84.3785 76.7895 83.1582 75.7471 82.1122ZM95.3788 95.8847C92.4253 94.6643 89.4719 93.2696 86.8659 91.5263C85.476 90.6546 84.2599 89.7829 82.8701 88.7369C81.6539 87.6909 80.2641 86.6449 79.2217 85.5989C82.8701 83.3325 86.6922 81.7635 90.688 80.5431C91.5567 83.1582 92.7728 85.5989 93.9889 87.8652C96.0737 91.5263 98.6797 95.013 101.981 97.9767C99.7221 97.4537 97.6373 96.7564 95.3788 95.8847ZM112.231 99.1971C111.362 99.0227 110.493 98.6741 109.625 98.3254C107.887 97.4537 106.324 96.4077 104.76 95.1873C103.197 93.967 101.807 92.5723 100.417 91.0033C99.0271 89.4343 97.811 87.8652 96.7686 86.2962C95.3788 84.3785 94.1626 82.1122 93.1202 80.0201C93.8152 79.8458 94.6838 79.6715 95.3788 79.4971C101.286 78.2768 107.193 77.9281 113.273 77.9281L112.231 99.1971ZM113.621 74.7901C107.366 74.7901 101.112 75.4874 95.0313 77.2308C94.1626 77.4051 93.294 77.7538 92.2516 78.1024C91.9041 77.2308 91.5567 76.3591 91.2092 75.4874C90.5143 73.5697 89.8193 71.652 89.1244 69.7343C88.7769 68.6883 88.4295 67.8166 88.2558 66.7706C88.2558 66.5963 88.082 66.4219 88.082 66.0733C88.4295 66.2476 88.777 66.2476 89.2981 66.4219C90.5143 66.5963 91.7304 66.9449 92.7728 67.1193C95.205 67.468 97.4635 67.8166 99.8958 68.1653C102.328 68.514 104.76 68.514 107.019 68.6883C109.277 68.8626 111.71 68.8626 113.968 68.8626L113.621 74.7901ZM114.316 68.6883C119.006 68.6883 123.871 68.3396 128.562 67.8166C130.994 67.468 133.252 67.1193 135.685 66.5963C136.206 66.4219 136.901 66.4219 137.422 66.2476C137.943 66.0733 138.638 66.0733 139.159 65.8989C139.68 65.7246 140.202 65.7246 140.723 65.5503C140.723 65.7246 140.723 65.7246 140.549 65.8989C140.202 66.9449 140.028 67.8166 139.68 68.8626C138.985 70.7803 138.29 72.8724 137.596 74.7901C137.248 75.8361 136.727 76.7077 136.379 77.7538H136.206C135.337 77.5794 134.642 77.4051 133.773 77.0564C130.646 76.1847 127.345 75.6617 124.218 75.3131C121.091 74.9644 117.964 74.7901 114.663 74.7901L114.316 68.6883ZM124.218 94.6643C122.655 95.8847 121.091 97.105 119.527 97.9767L118.833 98.3254C118.659 98.4997 118.485 98.4997 118.311 98.674C117.964 98.8484 117.443 99.0227 117.095 99.1971C116.748 99.3714 116.4 99.3714 116.053 99.3714L114.837 77.9281C121.091 77.9281 127.172 78.4511 133.252 79.4971C133.947 79.6715 134.642 79.6715 135.337 79.8458C134.295 81.9378 133.252 83.8555 132.036 85.7732C129.778 88.9113 127.345 92.0493 124.218 94.6643ZM149.062 84.9015C147.846 85.9475 146.63 87.1679 145.413 88.0396C144.197 89.0856 142.808 89.9573 141.418 91.0033C138.812 92.7466 135.858 94.3157 132.905 95.536C130.994 96.4077 129.083 97.105 126.998 97.628C128.562 96.059 130.125 94.49 131.341 92.7466C132.036 91.875 132.557 91.0033 133.252 90.1316C133.773 89.2599 134.468 88.2139 134.99 87.3422C136.206 85.0759 137.248 82.6352 138.117 80.1945C138.812 80.3688 139.68 80.5431 140.375 80.7175L141.591 81.0661C141.939 81.2405 142.286 81.2405 142.808 81.4148C145.24 82.1122 147.498 83.1582 149.757 84.2042C149.409 84.5529 149.236 84.7272 149.062 84.9015ZM164.871 54.3928C164.524 56.1361 164.177 57.7052 163.829 59.4485C163.308 61.0175 162.96 62.7609 162.265 64.3299C161.744 65.8989 161.049 67.468 160.354 69.037C158.965 72.0007 157.227 74.9644 155.316 77.5794C154.274 78.9741 153.405 80.1945 152.363 81.4148C151.494 82.2865 150.625 83.3325 149.757 84.2042C147.672 82.6352 145.414 81.2405 142.981 80.1945C142.286 79.8458 141.418 79.4971 140.723 79.3228C140.028 78.9741 139.333 78.7998 138.638 78.6254C138.985 77.5794 139.333 76.5334 139.507 75.6617C140.375 72.3494 140.896 69.037 141.244 65.7246C141.765 65.5503 142.113 65.5503 142.634 65.3759C144.892 64.6786 147.325 63.9812 149.583 63.1096C151.842 62.2379 154.1 61.1919 156.185 60.1459C158.27 58.9255 160.354 57.7052 162.265 55.9618C163.134 55.0901 164.003 54.2184 164.698 53.1724C164.871 52.8238 165.045 52.6494 165.219 52.3007C165.219 52.8238 165.045 53.5211 164.871 54.3928Z" fill="#AF7C57"/>
<path d="M151.32 53.3468C150.278 53.8698 147.151 55.6131 146.803 55.7875C143.85 57.1822 142.113 57.8795 139.68 58.5768C137.248 59.2742 134.642 59.7972 132.036 60.1459C126.824 60.8432 121.612 61.0175 116.4 61.0175C115.879 61.0175 115.358 61.0175 114.663 61.0175C114.837 55.7875 115.358 50.5574 116.4 45.676C119.875 28.5911 128.214 14.4699 140.896 3.66109C140.723 3.48675 141.765 2.61507 141.765 2.61507C141.765 2.61507 141.418 2.44074 139.854 3.13808C129.43 9.93717 121.786 19.3513 117.443 30.8575C114.663 38.1796 113.273 46.0247 113.099 54.5671C113.099 54.9158 113.099 55.2645 113.099 55.4388C111.188 46.8963 107.54 40.2716 102.154 34.8672C96.7686 29.6371 85.1286 24.0584 79.0479 24.2327L81.1327 24.93C98.1584 30.3345 109.104 42.7123 112.926 60.3202C103.544 60.1459 93.9889 59.2742 84.9548 57.3565C82.3488 56.8335 79.9166 56.1361 77.4844 55.2645C75.0521 54.3928 72.6199 53.5211 70.5351 52.1264C69.4927 51.4291 68.624 50.5574 68.2766 49.6857C68.1028 49.337 68.1028 48.814 68.1028 48.291C68.1028 47.768 68.2766 47.245 68.4503 46.8963C68.7978 45.8503 69.6664 44.9787 70.5351 44.107C71.0563 43.7583 71.5775 43.2353 72.0987 42.8866C72.6199 42.538 75.3996 41.4919 75.9208 41.1433C75.747 41.1433 74.8784 41.3176 73.836 41.4919C73.1411 41.6663 72.4461 41.8406 71.7512 42.0149C71.0563 42.1893 70.5351 42.538 69.8402 42.8866C68.624 43.584 67.4079 44.4556 66.5393 45.8503C66.1918 46.5477 65.8443 47.4194 65.8443 48.1167C65.8443 48.4654 65.8443 48.9884 65.8443 49.337C65.8443 49.6857 66.0181 50.2087 66.1918 50.5574C66.5393 51.4291 67.0605 51.9521 67.5816 52.4751C68.1028 52.9981 68.624 53.5211 69.319 53.8698C71.7512 55.4388 74.1835 56.4848 76.7894 57.3565C79.3954 58.2282 82.0014 58.9255 84.6074 59.4485C89.8193 60.4945 95.205 61.1919 100.417 61.7149C105.803 62.0636 111.015 62.2379 116.4 62.2379C119.006 62.2379 121.786 62.0636 124.392 61.8892C126.998 61.7149 129.778 61.3662 132.384 61.0175C134.99 60.6689 137.596 59.9715 140.202 59.2742C142.807 58.4025 144.892 57.5308 147.672 55.9618C147.846 56.3105 150.625 54.2184 151.32 53.3468C151.494 53.3468 151.32 53.3468 151.32 53.3468Z" fill="#AF7C57"/>
</g>
<defs>
<clipPath id="clip0">
<rect width="250" height="180.263" fill="white"/>
</clipPath>
</defs>
</svg>
