<svg width="30" height="30" viewBox="0 0 30 30" fill="none" xmlns="http://www.w3.org/2000/svg">
<g clip-path="url(#clip0)">
<path d="M15 14.6809C16.4834 14.6809 17.9334 14.2503 19.1668 13.4438C20.4001 12.6372 21.3614 11.4908 21.9291 10.1495C22.4968 8.8082 22.6453 7.33229 22.3559 5.90838C22.0665 4.48448 21.3522 3.17654 20.3033 2.14996C19.2544 1.12339 17.918 0.424278 16.4632 0.141046C15.0083 -0.142186 13.5003 0.0031786 12.1299 0.558758C10.7594 1.11434 9.58809 2.05518 8.76398 3.26231C7.93987 4.46943 7.5 5.88863 7.5 7.34043C7.50199 9.28663 8.2928 11.1526 9.69889 12.5287C11.105 13.9049 13.0115 14.6789 15 14.6809ZM15 2.44681C15.9889 2.44681 16.9556 2.73382 17.7778 3.27153C18.6001 3.80925 19.241 4.57353 19.6194 5.46772C19.9978 6.36191 20.0969 7.34586 19.9039 8.29513C19.711 9.24439 19.2348 10.1164 18.5355 10.8007C17.8363 11.4851 16.9454 11.9512 15.9755 12.14C15.0055 12.3288 14.0002 12.2319 13.0866 11.8615C12.173 11.4912 11.3921 10.8639 10.8427 10.0592C10.2932 9.25442 10 8.30829 10 7.34043C10 6.04256 10.5268 4.79785 11.4645 3.88012C12.4021 2.96239 13.6739 2.44681 15 2.44681Z" fill="#AF7C57"/>
<path d="M15 17.1276C12.0173 17.1309 9.15777 18.292 7.0487 20.3562C4.93964 22.4204 3.75331 25.2191 3.75 28.1383C3.75 28.4627 3.8817 28.7739 4.11612 29.0034C4.35054 29.2328 4.66848 29.3617 5 29.3617C5.33152 29.3617 5.64946 29.2328 5.88388 29.0034C6.1183 28.7739 6.25 28.4627 6.25 28.1383C6.25 25.867 7.17187 23.6888 8.81282 22.0827C10.4538 20.4767 12.6794 19.5745 15 19.5745C17.3206 19.5745 19.5462 20.4767 21.1872 22.0827C22.8281 23.6888 23.75 25.867 23.75 28.1383C23.75 28.4627 23.8817 28.7739 24.1161 29.0034C24.3505 29.2328 24.6685 29.3617 25 29.3617C25.3315 29.3617 25.6495 29.2328 25.8839 29.0034C26.1183 28.7739 26.25 28.4627 26.25 28.1383C26.2467 25.2191 25.0604 22.4204 22.9513 20.3562C20.8422 18.292 17.9827 17.1309 15 17.1276Z" fill="#AF7C57"/>
</g>
<defs>
<clipPath id="clip0">
<rect width="30" height="29.3617" fill="white"/>
</clipPath>
</defs>
</svg>
