<svg width="30" height="30" viewBox="0 0 30 30" fill="none" xmlns="http://www.w3.org/2000/svg">
<g clip-path="url(#clip0)">
<path d="M28.9438 17.3662C29.8388 9.83247 28.5138 5.07622 26.1238 2.92497L26.125 2.92372C22.2675 -0.75003 9.24001 -1.29378 4.62501 3.08872C2.55251 5.23247 1.82251 8.37872 1.74251 12.2737C1.66251 16.17 1.56751 23.4687 8.36876 25.4487H8.37501L8.36876 28.4725C8.36876 28.4725 8.32251 29.6975 9.10501 29.9437C10 30.2337 10.405 29.665 13.1888 26.34C17.8438 26.7437 21.4188 25.8187 21.825 25.6837C22.765 25.3687 28.0838 24.665 28.9438 17.3662ZM13.6475 24.2125C13.6475 24.2125 10.7013 27.8862 9.78501 28.84C9.48501 29.15 9.15626 29.1212 9.16126 28.5062C9.16126 28.1025 9.18376 23.4862 9.18376 23.4862C3.41751 21.8337 3.75751 15.6187 3.82001 12.3675C3.88251 9.11497 4.47751 6.45122 6.23251 4.65747C10.2813 0.86122 21.7025 1.70997 24.6125 4.44497C28.17 7.59872 26.9038 16.5087 26.9113 16.8125C26.18 22.905 21.87 23.2912 21.0775 23.555C20.7388 23.6675 17.595 24.4762 13.6475 24.2125Z" fill="#8E24AA"/>
<path d="M15.2775 5.37115C14.7963 5.37115 14.7963 6.12115 15.2775 6.1274C19.0113 6.15615 22.0863 8.75866 22.12 13.5324C22.12 14.0362 22.8575 14.0299 22.8513 13.5262H22.85C22.81 8.38241 19.4525 5.3999 15.2775 5.37115Z" fill="#8E24AA"/>
<path d="M20.1888 12.7412C20.1775 13.2387 20.9138 13.2625 20.92 12.7587C20.9813 9.92248 19.2325 7.58623 15.9463 7.33998C15.465 7.30498 15.415 8.06123 15.895 8.09623C18.745 8.31248 20.2463 10.2575 20.1888 12.7412Z" fill="#8E24AA"/>
<path d="M19.4012 15.9674C18.7837 15.6099 18.155 15.8324 17.895 16.1837L17.3512 16.8874C17.075 17.2449 16.5587 17.1974 16.5587 17.1974C12.7912 16.2012 11.7837 12.2587 11.7837 12.2587C11.7837 12.2587 11.7375 11.7249 12.0825 11.4387L12.7625 10.8762C13.1025 10.6062 13.3175 9.9562 12.9712 9.31745C12.0462 7.6462 11.425 7.06995 11.1087 6.62745C10.7762 6.2112 10.2762 6.11745 9.75624 6.3987H9.74499C8.66374 7.0312 7.47999 8.21495 7.85874 9.4337C8.50499 10.7187 9.69249 14.8149 13.4775 17.9099C15.2562 19.3737 18.0712 20.8737 19.2662 21.2199L19.2775 21.2374C20.455 21.6299 21.6 20.3999 22.2112 19.2862V19.2774C22.4825 18.7387 22.3925 18.2287 21.9963 17.8949C21.2937 17.2099 20.2337 16.4537 19.4012 15.9674Z" fill="#8E24AA"/>
<path d="M16.4613 10.13C17.6625 10.2 18.245 10.8275 18.3075 12.1162C18.33 12.62 19.0613 12.585 19.0388 12.0812C18.9588 10.3987 18.0813 9.46122 16.5013 9.37372C16.02 9.34497 15.975 10.1012 16.4613 10.13Z" fill="#8E24AA"/>
</g>
<defs>
<clipPath id="clip0">
<rect width="30" height="30" fill="white"/>
</clipPath>
</defs>
</svg>
